<svg id="Layer_1" data-name="Layer 1" xmlns="http://www.w3.org/2000/svg" viewBox="0 0 169.44 265.36"><defs><style>.cls-1{fill:#aa182c;}.cls-2{fill:#236092;}</style></defs><title>PDG_Initials_Logo_rgb</title><path class="cls-1" d="M96,71.64h16.32L99.2,81.5l5.1,15.64L91.2,87.51,78.11,97.14,83.27,81.5,70,71.64H86.27L91.2,56.39Z" transform="translate(-18.23 -16.65)"/><path class="cls-1" d="M148.37,185.53c-6.56,14.15-20,21.54-38,21.54H91.28V165.8H68.08V227h43.53c27.28,0,48-11.39,58.16-31.77l-.11-.1A47.69,47.69,0,0,0,148.37,185.53Z" transform="translate(-18.23 -16.65)"/><path class="cls-2" d="M152.08,219.31l-1,.6v17.43h17.71v13.48s-11.54,12-28.92,12c-19.09,0-34.62-12.69-38-32.9H80.07C83.49,261.76,108,282,136.17,282c21.45,0,33.47-12.35,33.47-12.35H170s-.16,2.44-.16,4.88v5.52h17.87V219.31Z" transform="translate(-18.23 -16.65)"/><path class="cls-2" d="M139.1,162.77h0a53.42,53.42,0,0,0-13.89,1.51,57.53,57.53,0,0,0-31,18.19v21.69h10.42c5.54-13.12,17.84-22.22,36.27-22.22h0A49.7,49.7,0,0,1,171.59,193l10.4-15.6S167.37,162.77,139.1,162.77Z" transform="translate(-18.23 -16.65)"/><path class="cls-2" d="M115.19,123.11a41.55,41.55,0,0,1-18.7,4H58.61V51.39h38.5C120,51.39,133.74,66.1,133.74,89c0,.79,0,1.56-.05,2.33l0,.41c0,.65-.07,1.3-.12,1.93l0,.27c-.06.69-.14,1.38-.23,2.06V96c-.1.73-.21,1.45-.34,2.16v0c15.24,3.8,27.28,11.86,35.41,23.31.51-1.18,1-2.37,1.44-3.59.08-.19.14-.39.21-.58q.54-1.5,1-3c.1-.3.18-.61.28-.91.27-.93.54-1.86.78-2.81.1-.37.19-.75.28-1.13.22-.89.42-1.79.61-2.69.09-.43.17-.86.25-1.29.17-.87.32-1.76.46-2.65.07-.46.15-.92.21-1.39.13-.88.23-1.78.33-2.69.05-.47.11-.94.15-1.41.09-1,.15-1.93.21-2.9,0-.43.06-.85.08-1.28.06-1.4.1-2.82.1-4.25,0-43.19-29.11-72.3-70.74-72.3H18.23V282H58.61V162.2H104c16.88,0,31.69-4.94,43.34-13.69C143.14,133.54,131.92,124.55,115.19,123.11Z" transform="translate(-18.23 -16.65)"/><path class="cls-1" d="M128.63,101v0l-.45-.08c-1.07-.2-2.15-.39-3.25-.56h0a89.18,89.18,0,0,0-13.32-1H68.08v24.21h23.2v-4.25h19.07c.67,0,1.34,0,2,0h0c.66,0,1.31,0,2,.1h.16c22.65,1.54,37.57,16,38.29,41.62a67.79,67.79,0,0,1,23.7,8.66q.25-3.27.26-6.71C176.72,128.86,158.24,106.87,128.63,101Z" transform="translate(-18.23 -16.65)"/></svg>