<svg id="Layer_1" data-name="Layer 1" xmlns="http://www.w3.org/2000/svg" viewBox="0 0 432 278.21"><defs><style>.cls-1{fill:#aa1e2e;}.cls-2{fill:#226093;}</style></defs><title>PDG_Logo_rgb</title><path class="cls-1" d="M104.4,177c-.35.23-.71.45-1.07.67v19.43h19.74v15s-12.85,13.41-32.23,13.41c-21.29,0-38.6-14.15-42.34-36.69H24.13c3.82,35.47,31.15,58,62.54,58,23.91,0,37.31-13.76,37.31-13.76h.36s-.18,2.72-.18,5.43v6.16h19.92V177Z" transform="translate(-10.76 -10.4)"/><path class="cls-2" d="M171.41,105.93c15.86,0,24.38,11.54,24.38,26.11,0,1.62-.32,5.29-.32,5.29h-38c.86,9.6,8.31,14.56,16.51,14.56,8.84,0,15.86-6,15.86-6l5.28,9.82A34.37,34.37,0,0,1,173,163.54c-18.24,0-29.57-13.16-29.57-28.8C143.46,117.8,155,105.93,171.41,105.93Zm10.57,22c-.22-7.45-4.86-11.44-10.9-11.44-7,0-11.87,4.32-13.16,11.44Z" transform="translate(-10.76 -10.4)"/><path class="cls-2" d="M235.06,127.72h1.84V127c0-7.23-4.53-9.71-10.58-9.71-7.87,0-15.1,5.28-15.1,5.28L206,112.73a37.1,37.1,0,0,1,21.58-6.8c14.46,0,22.87,8,22.87,21.9v34.42H237.87v-4.53a36,36,0,0,1,.21-3.89h-.21c.11,0-4.21,9.71-16.72,9.71-9.82,0-18.67-6.15-18.67-17.15C202.48,128.91,226.11,127.72,235.06,127.72ZM224.6,152.86c7.23,0,12.41-7.77,12.41-14.45v-1.3h-2.38c-7,0-18.34,1-18.34,8.63C216.29,149.41,219,152.86,224.6,152.86Z" transform="translate(-10.76 -10.4)"/><path class="cls-2" d="M290.63,105.93c14.35,0,21.15,8.2,21.15,8.2l-6,9.39a21.57,21.57,0,0,0-14.35-5.94c-10.15,0-16.73,7.66-16.73,17s6.69,17.26,17.16,17.26c9.28,0,16.18-7,16.18-7l5.29,9.71s-7.88,8.95-22.66,8.95c-18.23,0-29.88-12.84-29.88-28.8C260.75,119.09,272.4,105.93,290.63,105.93Z" transform="translate(-10.76 -10.4)"/><path class="cls-2" d="M349.65,105.93c16.83,0,30.32,12,30.32,28.81s-13.49,28.8-30.21,28.8-30.32-11.86-30.32-28.8S332.93,105.93,349.65,105.93Zm.11,46c8.85,0,16.29-6.9,16.29-17.15s-7.44-17.16-16.29-17.16-16.4,7-16.4,17.16S340.8,151.89,349.76,151.89Z" transform="translate(-10.76 -10.4)"/><path class="cls-2" d="M391,107.22h13.16v6.37a33.56,33.56,0,0,1-.22,3.78h.22a21.34,21.34,0,0,1,19.53-11.44c12.19,0,19.09,6.37,19.09,20.93v35.39H429.17V129.67c0-6.69-1.73-11.22-8.74-11.22-7.34,0-12.73,4.63-14.78,11.22a23.3,23.3,0,0,0-1,7.33v25.25H391Z" transform="translate(-10.76 -10.4)"/><path class="cls-1" d="M197.94,199.69h2.21v-.91c0-8.71-5.46-11.7-12.75-11.7-9.49,0-18.21,6.37-18.21,6.37L163,181.61a44.73,44.73,0,0,1,26-8.19c17.43,0,27.58,9.62,27.58,26.4v41.5H201.32v-5.46a42.36,42.36,0,0,1,.26-4.69h-.26c.13,0-5.07,11.71-20.16,11.71-11.84,0-22.51-7.41-22.51-20.68C158.65,201.13,187.14,199.69,197.94,199.69ZM185.32,230c8.72,0,15-9.36,15-17.43V211h-2.86c-8.46,0-22.12,1.17-22.12,10.41C175.3,225.84,178.56,230,185.32,230Z" transform="translate(-10.76 -10.4)"/><path class="cls-1" d="M233.71,175h15.88v11.45a43.51,43.51,0,0,1-.27,4.68h.27c3-9.5,10.92-17,21.07-17a18.9,18.9,0,0,1,3,.26v16.26a28.48,28.48,0,0,0-3.9-.26c-7,0-15,4-18.08,13.92A35.54,35.54,0,0,0,250.24,215v26.28H233.71Z" transform="translate(-10.76 -10.4)"/><path class="cls-1" d="M316.06,173.42c17.3,0,25.5,9.88,25.5,9.88l-7.29,11.32s-6.89-7.15-17.3-7.15c-12.23,0-20.16,9.23-20.16,20.55s8.06,20.81,20.68,20.81c11.19,0,19.51-8.45,19.51-8.45l6.38,11.71s-9.5,10.79-27.32,10.79c-22,0-36-15.48-36-34.73C280,189.29,294.07,173.42,316.06,173.42Z" transform="translate(-10.76 -10.4)"/><path class="cls-1" d="M355.74,175h16.52v66.34H355.74Z" transform="translate(-10.76 -10.4)"/><path class="cls-1" d="M424.16,199.69h2.21v-.91c0-8.71-5.46-11.7-12.74-11.7-9.5,0-18.22,6.37-18.22,6.37l-6.24-11.84a44.78,44.78,0,0,1,26-8.19c17.43,0,27.57,9.62,27.57,26.4v41.5H427.55v-5.46a44,44,0,0,1,.25-4.69h-.25c.12,0-5.08,11.71-20.17,11.71-11.84,0-22.5-7.41-22.5-20.68C384.88,201.13,413.37,199.69,424.16,199.69ZM411.54,230c8.72,0,15-9.36,15-17.43V211h-2.86c-8.45,0-22.11,1.17-22.11,10.41C401.53,225.84,404.78,230,411.54,230Z" transform="translate(-10.76 -10.4)"/><path class="cls-1" d="M157.92,10.4h32.21c15.63,0,26.57,10.93,26.57,27.15s-10.94,27.51-26.57,27.51h-17v28.8H157.92Zm29.39,41.5c8.82,0,14-5.65,14-14.35s-5.17-14.1-13.76-14.1H173.08V51.9Z" transform="translate(-10.76 -10.4)"/><path class="cls-1" d="M258.2,56.25h2v-.83c0-7.87-4.94-10.58-11.52-10.58-8.59,0-16.46,5.76-16.46,5.76l-5.64-10.69a40.4,40.4,0,0,1,23.51-7.41c15.75,0,24.92,8.7,24.92,23.86v37.5H261.25V88.93a37.53,37.53,0,0,1,.24-4.24h-.24c.12,0-4.58,10.59-18.22,10.59-10.7,0-20.33-6.71-20.33-18.7C222.7,57.54,248.44,56.25,258.2,56.25ZM246.79,83.64c7.88,0,13.52-8.47,13.52-15.76V66.47h-2.58c-7.64,0-20,1.06-20,9.41C237.74,79.88,240.68,83.64,246.79,83.64Z" transform="translate(-10.76 -10.4)"/><path class="cls-1" d="M289.7,33.91h14.93v35.5c0,7.29,1.88,12.23,9.29,12.23,10.82,0,16.81-9.52,16.81-20.22V33.91h14.93v60H331.32V87.05a38.91,38.91,0,0,1,.23-4.24h-.23c-2.94,6.23-10.58,12.47-20.81,12.47-12.81,0-20.81-6.47-20.81-22.81Z" transform="translate(-10.76 -10.4)"/><path class="cls-1" d="M361.3,10.4h14.81V72.94c0,6.58,2.23,8.23,6.11,8.23,1.18,0,2.24-.12,2.24-.12v13a34.45,34.45,0,0,1-4.71.35c-8.23,0-18.45-2.11-18.45-19.28Z" transform="translate(-10.76 -10.4)"/><path class="cls-1" d="M426,56.25h2v-.83c0-7.87-4.93-10.58-11.52-10.58-8.58,0-16.46,5.76-16.46,5.76l-5.64-10.69a40.44,40.44,0,0,1,23.51-7.41c15.76,0,24.92,8.7,24.92,23.86v37.5H429V88.93a37.53,37.53,0,0,1,.24-4.24H429c.12,0-4.58,10.59-18.22,10.59-10.7,0-20.34-6.71-20.34-18.7C390.45,57.54,416.2,56.25,426,56.25Zm-11.4,27.39c7.88,0,13.52-8.47,13.52-15.76V66.47h-2.59c-7.64,0-20,1.06-20,9.41C405.5,79.88,408.44,83.64,414.55,83.64Z" transform="translate(-10.76 -10.4)"/><path class="cls-1" d="M66.53,84.3H82.85L69.71,94.16l5.1,15.64-13.09-9.63-13.1,9.63,5.16-15.64L40.52,84.3H56.79l4.93-15.25Z" transform="translate(-10.76 -10.4)"/><path class="cls-2" d="M124,150.09a53.36,53.36,0,0,0-23.73-10.73c-7.31,15.78-22.33,24-42.39,24H36.63V65.52H57.88c27.81,0,46.43,16.27,47.28,46.55a75.61,75.61,0,0,1,26.42,9.66q.28-3.66.29-7.48c0-44.92-28.67-71-72.58-71H10.76V185.63H59.29c30.41,0,53.5-12.7,64.83-35.43Z" transform="translate(-10.76 -10.4)"/><path class="cls-1" d="M89.94,114h0a59.44,59.44,0,0,0-15.49,1.69A64.11,64.11,0,0,0,39.87,136v24.18H51.49c6.17-14.62,19.89-24.77,40.43-24.77h0a55.38,55.38,0,0,1,34.23,12.32l11.59-17.39S121.44,114,89.94,114Z" transform="translate(-10.76 -10.4)"/><path class="cls-2" d="M13,263.41H24.48v3.77H17.26v7.15h6v3.77h-6v10.09H13Z" transform="translate(-10.76 -10.4)"/><path class="cls-2" d="M36.39,263c6.1,0,10,5.2,10,12.67s-3.88,12.95-10,12.95-10-5.38-10-13C26.4,268.22,30.24,263,36.39,263Zm0,21.53c3.49,0,5.58-3.52,5.58-8.86s-2.09-8.59-5.58-8.59-5.62,3.35-5.62,8.55C30.77,281,32.86,284.52,36.39,284.52Z" transform="translate(-10.76 -10.4)"/><path class="cls-2" d="M49.79,263.41H57a7.62,7.62,0,0,1,3.25.77A7,7,0,0,1,64,270.77a7.78,7.78,0,0,1-3.63,6.81v.07a9.79,9.79,0,0,1,.74,1.33l4.11,9.21H60.51l-3.77-9.25H54.05v9.25H49.79Zm6.53,11.76c1.74,0,3.31-1.5,3.31-4.05a4,4,0,0,0-1.32-3.31,3.61,3.61,0,0,0-1.92-.6H54.05v8Z" transform="translate(-10.76 -10.4)"/><path class="cls-2" d="M84.53,263a9.18,9.18,0,0,1,6,2.06l-1.78,3.66A6,6,0,0,0,84.67,267c-4.3,0-6.64,3.84-6.64,8.59s2.48,9,6.57,9a7.33,7.33,0,0,0,4.6-1.81L91,286.37a9.92,9.92,0,0,1-6.67,2.24c-6.7,0-10.61-5.52-10.61-12.85S77.69,263,84.53,263Z" transform="translate(-10.76 -10.4)"/><path class="cls-2" d="M102,263c6.1,0,10,5.2,10,12.67s-3.88,12.95-10,12.95-10-5.38-10-13C92,268.22,95.8,263,102,263Zm0,21.53c3.49,0,5.58-3.52,5.58-8.86s-2.09-8.59-5.58-8.59-5.62,3.35-5.62,8.55C96.33,281,98.42,284.52,102,284.52Z" transform="translate(-10.76 -10.4)"/><path class="cls-2" d="M115.21,263.41h4.23v16.75c0,3.11,1.43,4.5,3.66,4.5s3.67-1.39,3.67-4.5V263.41H131V280.2c0,5.23-3.14,8.41-7.88,8.41s-7.93-3.18-7.93-8.41Z" transform="translate(-10.76 -10.4)"/><path class="cls-2" d="M135.32,263.41h4.47l6.39,14a30.86,30.86,0,0,1,1.25,3.77h.14s-.24-2.34-.24-3.81v-14h4v24.78h-4.44l-6.38-14.07a31.59,31.59,0,0,1-1.26-3.77h-.14s.24,2.34.24,3.81v14h-4Z" transform="translate(-10.76 -10.4)"/><path class="cls-2" d="M159.93,267.18h-6v-3.77h16.2v3.77h-6v21h-4.22Z" transform="translate(-10.76 -10.4)"/><path class="cls-2" d="M176.9,277.82l-6.36-14.41h4.68l2.76,7.26c.56,1.53,1,3.28,1,3.28h.1s.45-1.75,1-3.28l2.73-7.26h4.67l-6.35,14.41v10.37H176.9Z" transform="translate(-10.76 -10.4)"/><path class="cls-2" d="M195.54,263.41h6.7c3.94,0,6.81,2.27,6.81,6.39a5.85,5.85,0,0,1-2.9,5.3v.07c2.55.8,3.7,3.21,3.7,5.86,0,5-3.11,7.16-7.47,7.16h-6.84Zm6.87,10.16c1.4,0,2.31-1.4,2.31-3.25s-.94-3.14-2.62-3.14h-2.3v6.39Zm-.1,10.85c2.23,0,3.18-1.57,3.18-3.63,0-2.23-1.05-3.7-2.69-3.7h-3v7.33Z" transform="translate(-10.76 -10.4)"/><path class="cls-2" d="M222.14,263c6.11,0,10,5.2,10,12.67s-3.87,12.95-10,12.95-10-5.38-10-13C212.16,268.22,216,263,222.14,263Zm0,21.53c3.49,0,5.58-3.52,5.58-8.86s-2.09-8.59-5.58-8.59-5.62,3.35-5.62,8.55C216.52,281,218.61,284.52,222.14,284.52Z" transform="translate(-10.76 -10.4)"/><path class="cls-2" d="M239.52,263.41h4.61l6.53,24.78H246.4l-1.54-6.39h-6.07l-1.5,6.39H233Zm4.68,14.83-1.57-6.66c-.35-1.44-.73-3.84-.73-3.84h-.11s-.38,2.4-.7,3.84l-1.6,6.66Z" transform="translate(-10.76 -10.4)"/><path class="cls-2" d="M253.07,263.41h7.19a7.66,7.66,0,0,1,3.25.77,7,7,0,0,1,3.73,6.59,7.78,7.78,0,0,1-3.63,6.81v.07a10.69,10.69,0,0,1,.73,1.33l4.12,9.21h-4.68L260,278.94h-2.69v9.25h-4.26Zm6.53,11.76c1.74,0,3.31-1.5,3.31-4.05a4.08,4.08,0,0,0-1.32-3.31,3.61,3.61,0,0,0-1.92-.6h-2.34v8Z" transform="translate(-10.76 -10.4)"/><path class="cls-2" d="M271.08,263.41H278c6.11,0,10,4.54,10,12.35s-3.87,12.43-10,12.43h-6.88Zm6.7,21c3.63,0,5.76-3,5.76-8.62s-2.2-8.55-5.76-8.55h-2.44v17.17Z" transform="translate(-10.76 -10.4)"/><path class="cls-2" d="M298.31,263.41h6.88c6.11,0,10,4.54,10,12.35s-3.87,12.43-10,12.43h-6.88Zm6.7,21c3.63,0,5.76-3,5.76-8.62s-2.2-8.55-5.76-8.55h-2.44v17.17Z" transform="translate(-10.76 -10.4)"/><path class="cls-2" d="M318.63,263.41h4.26v24.78h-4.26Z" transform="translate(-10.76 -10.4)"/><path class="cls-2" d="M327.88,282.57a6.12,6.12,0,0,0,4.29,2.09,2.87,2.87,0,0,0,3-3.07c0-4.5-8.73-4.39-8.73-11.55,0-4,2.73-7.05,7.37-7.05a9.61,9.61,0,0,1,5.48,1.64l-1.54,3.77a7,7,0,0,0-3.87-1.43,2.91,2.91,0,0,0-3.18,3c0,4.54,8.76,4.12,8.76,11.42,0,3.91-2.44,7.19-7.19,7.19a9.65,9.65,0,0,1-6.42-2.41Z" transform="translate(-10.76 -10.4)"/><path class="cls-2" d="M346.94,267.18h-6v-3.77h16.2v3.77h-6v21h-4.22Z" transform="translate(-10.76 -10.4)"/><path class="cls-2" d="M359.82,263.41H367a7.66,7.66,0,0,1,3.25.77,7,7,0,0,1,3.73,6.59,7.78,7.78,0,0,1-3.63,6.81v.07a9.26,9.26,0,0,1,.73,1.33l4.12,9.21h-4.67l-3.77-9.25h-2.69v9.25h-4.26Zm6.53,11.76c1.74,0,3.31-1.5,3.31-4.05a4,4,0,0,0-1.32-3.31,3.61,3.61,0,0,0-1.92-.6h-2.34v8Z" transform="translate(-10.76 -10.4)"/><path class="cls-2" d="M377.83,263.41h4.26v24.78h-4.26Z" transform="translate(-10.76 -10.4)"/><path class="cls-2" d="M396.37,263a9.21,9.21,0,0,1,6,2.06l-1.78,3.66a6.06,6.06,0,0,0-4.12-1.71c-4.29,0-6.63,3.84-6.63,8.59s2.48,9,6.56,9a7.38,7.38,0,0,0,4.61-1.81l1.74,3.59a9.92,9.92,0,0,1-6.67,2.24c-6.7,0-10.61-5.52-10.61-12.85S389.53,263,396.37,263Z" transform="translate(-10.76 -10.4)"/><path class="cls-2" d="M409.7,267.18h-6v-3.77h16.19v3.77h-6v21H409.7Z" transform="translate(-10.76 -10.4)"/><path class="cls-2" d="M428,285.89c0-8.42,8.55-9.57,8.55-15.47,0-2.16-1.19-3.31-3-3.31a3.69,3.69,0,0,0-3.14,1.71l-2.89-2.37a8.12,8.12,0,0,1,6.63-3.46c3.7,0,6.8,2.44,6.8,7,0,7.5-8.23,9.56-8.48,14.45h8.76v3.77H428.21A12.53,12.53,0,0,1,428,285.89Z" transform="translate(-10.76 -10.4)"/></svg>